<svg xmlns="http://www.w3.org/2000/svg" width="40" height="40" viewBox="0 0 40 40" fill="none">
  <rect width="40" height="40" fill="#25E29E"/>
  <path d="M23.301 19.9152C25.9725 21.1254 27.0121 23.2786 27.7108 25.7379C28.3805 28.0904 29.466 28.4865 31.6153 27.3589C31.6999 27.3151 31.8256 27.354 31.9537 27.354C31.9707 27.5023 32.0263 27.6335 31.9852 27.7137C30.8175 29.9398 26.8622 31.5607 24.4325 30.8171C21.8819 30.037 20.6754 27.9956 21.0623 25.1304C21.1614 24.4013 21.2823 23.6747 21.3234 22.9432C21.4032 21.4705 20.8689 20.8216 19.4304 20.513C19.1209 20.4474 18.8211 20.3429 18.5165 20.2554C18.5165 20.1509 18.5165 20.0464 18.5165 19.9419C18.8936 19.8496 19.2708 19.7499 19.6504 19.6649C21.8262 19.1788 22.728 17.5214 21.8093 15.4752C20.6996 12.9939 18.8211 11.3851 16.123 10.8408C15.8619 10.7873 15.5863 10.7679 15.3204 10.78C14.4041 10.8189 13.4854 10.9647 13.1711 11.9927C12.8689 12.9769 13.4588 13.7352 14.2421 14.0851C17.4503 15.5214 18.1176 18.1071 17.9169 21.3295C17.738 24.1826 17.8565 27.0575 17.8927 29.9228C17.9024 30.7199 17.6631 31.0212 16.8411 30.9921C15.2261 30.9362 13.6063 30.9532 11.9889 30.9848C11.3289 30.9993 10.9952 30.8292 11.0001 30.0904C11.0339 25.0186 10.971 19.9468 11.0823 14.8773C11.1451 12.0462 13.2122 9.86626 16.2415 9.28787C19.4594 8.67303 22.6241 9.04485 25.6147 10.3863C28.3901 11.6306 29.4974 14.1677 28.4119 16.4983C27.7084 18.0075 26.3787 18.7657 24.9087 19.3343C24.4542 19.5093 23.9925 19.6673 23.301 19.9152Z" fill="#313338"/>
</svg>