<svg width="312" height="91" viewBox="0 0 312 91" fill="none" xmlns="http://www.w3.org/2000/svg">
<g clip-path="url(#clip0_225_21192)">
<path d="M85.7 77.1601C79.17 83.7001 72.3 88.7101 63.18 89.5101C49.26 90.7201 39.38 80.5701 40.98 66.7001C41.34 63.6001 41.94 60.5301 42.17 57.4301C42.7 50.4201 40.23 47.5401 33.29 46.7401C32.44 46.6401 31.59 46.6001 30.05 45.6801C30.75 44.9901 31.45 44.2901 32.17 43.6101C32.24 43.5401 32.41 43.5901 32.54 43.5801C45.41 42.3501 49.2 32.9401 41.77 21.9301C35.93 13.2901 28.16 7.77006 17.32 7.73006C13.94 7.71006 10.62 8.46006 9.48999 12.1901C8.37999 15.8501 10.51 18.4101 13.36 20.3501C15.72 21.9701 18.21 23.4001 20.61 24.9701C25.41 28.1101 28.38 32.5001 28.43 38.2801C28.57 55.1001 28.48 71.9201 28.48 89.0401C19.12 89.0401 9.85999 89.0401 0.259987 89.0401C0.179987 87.8901 0.0299872 86.7001 0.0299872 85.5101C0.00998725 67.0501 -0.0200128 48.5901 0.0299872 30.1301C0.0899872 11.1901 9.75999 1.06006 28.75 0.130058C38.29 -0.339942 47.71 0.580058 56.69 4.06006C59.57 5.17006 62.42 6.61006 64.92 8.40006C76.68 16.8301 75.96 31.7901 63.38 39.2201C59.79 41.3401 55.74 42.6601 51.69 44.4401C53.36 45.4901 55.16 46.5001 56.82 47.7001C62.54 51.8501 65.56 57.7801 67.63 64.3301C68.41 66.8201 69.06 69.3901 70.17 71.7401C72.95 77.5801 78.08 78.6601 83.52 74.4901C83.06 73.5901 82.57 72.6401 82.07 71.6801C72.09 52.4801 78.69 21.7401 111.3 18.2001C118.44 17.4201 125.52 17.7101 132.29 20.4301C142.77 24.6501 144.84 33.4201 137.15 41.7101C129.75 49.6901 119.86 53.2201 109.79 56.3301C108.72 56.6601 107.62 56.9101 106.55 57.2301C106.33 57.2901 106.16 57.4901 105.56 57.8901C110.79 66.1401 116.19 74.1701 125.66 78.1601C134.09 81.7101 143.4 78.9701 150.62 71.0601C146.17 61.1401 145.43 50.9401 149.3 40.6201C155.39 24.4101 175.27 13.9501 190.52 19.0701C194 20.2401 197.11 22.5101 200.37 24.3101C202.33 25.3901 204.16 26.7901 206.22 27.5901C210.41 29.2301 213.66 27.2301 214.46 22.8101C214.64 21.8301 214.6 20.7901 214.9 19.8601C215.04 19.4301 215.76 18.9401 216.23 18.9301C216.69 18.9201 217.53 19.4201 217.58 19.7801C218.74 28.1801 217.84 36.2501 212.98 43.4301C208.88 49.4901 202.87 51.6601 195.75 50.9301C189.36 50.2701 184.98 46.5601 181.97 41.1901C179.78 37.2901 178.03 33.1401 175.95 29.1701C173.62 24.7101 171.41 23.4001 168.19 24.2601C164.74 25.1901 163.11 28.1601 163.53 32.9501C163.64 34.1801 163.85 35.4401 164.25 36.6001C168.99 50.1801 175.85 62.6001 186.1 72.7401C196.06 82.6001 206.45 81.9401 215.99 71.5801C217.34 70.1201 218.58 68.5601 219.96 66.9401C220.82 67.5701 221.59 68.1501 222.36 68.7101C207.5 95.1201 173.32 98.2001 152.54 74.6501C143.92 84.6801 133.04 89.9601 119.7 90.2301C106.66 90.4501 94.99 87.4501 85.7 77.1601ZM118.74 38.9601C118 33.1601 114.22 28.1601 108.26 24.7801C104.79 22.8101 101.06 22.5101 97.68 25.0301C94.46 27.4301 93.87 31.0901 95.08 34.5001C97.31 40.8001 100.11 46.9001 102.77 53.0401C103.03 53.6501 103.99 54.3201 104.64 54.3301C111.08 54.4601 118.82 46.6101 118.74 38.9601Z" fill="#25E29E"/>
<path d="M311.18 45.0001C311.25 70.0201 291.58 90.1401 267.05 90.1601C242.63 90.1801 222.72 69.9101 222.75 45.0501C222.77 20.3101 242.46 0.230093 266.81 0.130093C291.44 0.0200925 311.11 19.9201 311.18 45.0001ZM241.13 19.1101C241.58 28.8601 244.63 37.0101 248.61 44.8201C255.31 57.9601 263.55 69.9101 276.13 78.1801C280 80.7201 284.42 83.3001 288.99 80.4001C293.66 77.4301 293.51 72.1801 292.66 67.5101C288.59 45.2401 277.2 27.2601 259.62 13.2101C257.09 11.1901 253.75 9.92009 250.58 9.01009C246.41 7.82009 243.24 9.85009 241.96 14.0501C241.39 15.9201 241.31 17.9501 241.13 19.1101Z" fill="#25E29E"/>
</g>
<defs>
<clipPath id="clip0_225_21192">
<rect width="311.18" height="90.53" fill="white"/>
</clipPath>
</defs>
</svg>